<?xml version="1.0" encoding="UTF-8"?><svg id="a" xmlns="http://www.w3.org/2000/svg" xmlns:xlink="http://www.w3.org/1999/xlink" viewBox="0 0 1200 902.93"><defs><style>.g{fill:url(#e);}.h{fill:url(#d);}.i{fill:url(#f);}.j{fill:url(#c);}.k{fill:url(#b);}.l{fill:#f2f2f2;}</style><linearGradient id="b" x1="222.3" y1="444.28" x2="1200" y2="444.28" gradientTransform="matrix(1, 0, 0, 1, 0, 0)" gradientUnits="userSpaceOnUse"><stop offset="0" stop-color="#cce0f4"/><stop offset=".01" stop-color="#c2dcf2"/><stop offset=".04" stop-color="#a9d2ee"/><stop offset=".07" stop-color="#7fc2e7"/><stop offset=".1" stop-color="#46abdd"/><stop offset=".13" stop-color="#1e9cd7"/><stop offset=".87" stop-color="#0075be"/><stop offset=".99" stop-color="#005b97"/></linearGradient><linearGradient id="c" x1="860.47" y1="323.68" x2="959.47" y2="323.68" xlink:href="#b"/><linearGradient id="d" x1="193.8" y1="843.93" x2="356.6" y2="843.93" xlink:href="#b"/><linearGradient id="e" x1="98.24" y1="787.32" x2="290.44" y2="787.32" xlink:href="#b"/><linearGradient id="f" x1="0" y1="731.73" x2="224.28" y2="731.73" xlink:href="#b"/></defs><rect class="l" x="0" y=".47" width="1200" height="902"/><rect class="l" x="-400" y="-548.53" width="2000" height="2000"/><g><path class="k" d="M1197.49,408.12L925.91,6.43c-.36-.53-.75-1.01-1.16-1.48-.1-.11-.2-.21-.3-.32-1-1.07-2.13-1.96-3.35-2.66-.09-.05-.19-.11-.28-.16-.6-.33-1.22-.61-1.86-.85-.12-.04-.24-.08-.36-.12-.63-.22-1.26-.4-1.91-.54-.03,0-.06-.02-.1-.02-.67-.13-1.35-.2-2.03-.24-.13,0-.26-.02-.39-.02-.68-.02-1.35,0-2.03,.08-.08,0-.16,.02-.24,.04-.65,.08-1.29,.21-1.93,.38-.07,.02-.15,.03-.23,.06-.66,.19-1.31,.43-1.94,.72-.12,.05-.24,.11-.36,.17-.64,.31-1.26,.65-1.87,1.05L228.73,460.12c-.6,.41-1.15,.86-1.67,1.33-.1,.09-.2,.18-.3,.28-.5,.48-.97,.99-1.39,1.53-.05,.06-.09,.12-.13,.18-.4,.53-.76,1.08-1.08,1.66-.04,.07-.08,.13-.12,.2-.32,.6-.6,1.22-.83,1.86-.05,.12-.09,.24-.13,.37-.22,.65-.41,1.3-.53,1.97,0,.04,0,.07-.02,.11-.12,.65-.18,1.3-.21,1.96,0,.13-.02,.25-.02,.38-.01,.68,.02,1.36,.1,2.04,.01,.11,.03,.22,.05,.33,.2,1.4,.61,2.78,1.22,4.1,.06,.13,.12,.26,.18,.39,.28,.55,.58,1.1,.94,1.63l271.58,401.69c2.17,3.22,5.54,5.44,9.35,6.17,.92,.18,1.85,.27,2.78,.27,2.9,0,5.76-.86,8.2-2.51l676.87-457.62c3.22-2.17,5.44-5.54,6.17-9.35,.74-3.81-.07-7.76-2.25-10.97ZM883.29,52.91l-158.96,410.87-440.51-5.58L684.88,187.05,883.29,52.91Zm-370.86,800.7l-247.71-366.38,469.41,5.95c.06,0,.12,0,.19,0,6.04,0,11.46-3.71,13.65-9.35L917.34,46l247.71,366.38-652.62,441.22Z"/><path class="j" d="M861.37,413.64c-2.78,7.59,1.11,16,8.7,18.78,1.66,.61,3.37,.9,5.04,.9,5.96,0,11.57-3.67,13.74-9.6l69.72-190c2.78-7.59-1.11-16-8.7-18.78-7.6-2.79-16,1.11-18.78,8.7l-69.72,190Z"/><path class="h" d="M333.86,787.37l-133.52,88.74c-6.73,4.47-8.56,13.56-4.09,20.29,2.82,4.24,7.46,6.54,12.2,6.54,2.78,0,5.6-.79,8.09-2.45l133.52-88.74c6.73-4.47,8.56-13.56,4.09-20.29-4.47-6.73-13.56-8.56-20.29-4.09Z"/><path class="g" d="M288.01,725.32c-4.46-6.74-13.54-8.59-20.28-4.13l-162.93,107.85c-6.74,4.46-8.59,13.54-4.12,20.28,2.82,4.25,7.47,6.56,12.22,6.56,2.77,0,5.58-.79,8.06-2.43l162.93-107.85c6.74-4.46,8.59-13.54,4.12-20.28Z"/><path class="i" d="M221.85,659.17c-4.46-6.74-13.54-8.59-20.28-4.13L6.56,784c-6.74,4.46-8.59,13.54-4.13,20.28,2.82,4.25,7.47,6.56,12.22,6.56,2.77,0,5.57-.79,8.06-2.43l195.01-128.97c6.74-4.46,8.59-13.54,4.13-20.28Z"/></g></svg>