<?xml version="1.0" encoding="UTF-8"?><svg id="a" xmlns="http://www.w3.org/2000/svg" viewBox="0 0 383.34 383.29"><defs><style>.b{fill:none;}.c{fill:#ab0000;}.d{fill:#c70000;}</style></defs><path class="d" d="M383.34,163.6c0,1.37,.02,2.74,0,4.12-.12,7.27-4.76,12.13-11.48,12.04-6.55-.09-11.01-4.87-11.16-11.96-.57-26.74-7.03-51.91-21.21-74.67-24.62-39.51-60.13-62.66-106.32-69.19-5.92-.84-11.88-1.28-17.88-1.4-7.08-.13-11.78-4.78-11.73-11.38C203.61,4.58,208.38-.02,215.49,0c39.39,.13,74.47,12.74,105.06,37.36,31.17,25.08,50.7,57.54,59.29,96.58,2.15,9.76,3.2,19.67,3.5,29.66Z"/><path class="c" d="M219.1,44.91c28,1.1,52.95,10.44,74.47,28.34,24.3,20.21,38.78,46.15,43.65,77.39,.9,5.79,1.39,11.63,1.2,17.51-.23,6.82-4.73,11.52-11.17,11.6-6.56,.09-11.28-4.71-11.47-11.64-.78-28.51-10.9-53.06-31.65-72.79-16.92-16.08-37.13-25.33-60.54-27.19-3.1-.25-6.21-.45-9.32-.68-6.34-.48-10.71-5.07-10.72-11.26,0-6.18,4.38-10.84,10.69-11.27,1.61-.11,3.24-.02,4.86-.02Z"/><path class="d" d="M293.49,165.45c0,1.12,.06,2.25,0,3.37-.37,6.5-5.1,11.01-11.42,10.95-6.28-.07-10.94-4.69-11.18-11.18-.69-18.85-8.19-34.24-23.43-45.54-9.51-7.06-20.44-10.16-32.18-10.64-9-.36-14.22-8.21-10.68-16.11,2.08-4.64,5.97-6.49,10.86-6.5,16.64-.05,31.76,4.9,45.13,14.65,20.62,15.04,31.38,35.58,32.91,61Z"/><path class="c" d="M216.21,134.7c17.35,.2,32.66,15.91,32.39,33.22-.11,6.85-4.5,11.61-10.91,11.83-6.4,.22-11.08-4.17-11.73-11-.65-6.79-4.42-10.65-11.17-11.41-7.42-.84-11.63-5.44-11.24-12.27,.36-6.32,5.41-10.46,12.67-10.37Z"/><line class="b" x1="102.2" y1="157.23" x2="137.78" y2="187.2"/><path class="c" d="M126.25,226.3c-6.67-8.09-12.72-16.65-16.18-26.74-.96-2.8-.57-4.92,1.65-7.04,.85-.81,1.67-1.65,2.51-2.46l-16.09-16.09c-1.23,1.19-2.47,2.37-3.74,3.52-7.65,6.95-9.04,15.56-7.07,24.97,2.54,12.11,9,22.41,16.36,32.08,15.99,21,34.5,39.37,57.19,53.17,10.18,6.19,18.78,8.92,27.58,8.93,6.22,.42,11.79-2.06,16.5-6.93,5.46-5.65,11.05-11.17,16.66-16.68,5.36-5.27,10.24-5.93,16.5-1.8,18.64,12.29,37.21,24.68,55.73,37.15,5.5,3.7,6.55,10.4,2.89,15.54l17.54,14.78c12.32-15.51,9.8-37.03-7.01-48.78-19-13.29-38.38-26.06-57.89-38.6-14.64-9.41-31.03-7.22-43.41,4.99-5.15,5.08-10.3,10.16-15.32,15.36-1.89,1.97-3.78,2.4-6.36,1.65-4.12-1.2-7.91-3.05-11.55-5.23-18.19-10.93-33.11-25.55-46.51-41.79Z"/><path class="d" d="M284.72,336.34c-5.84,5.87-11.7,11.72-17.64,17.49-6.17,6-14,7.28-22.23,6.59-16.9-1.43-32.09-8.05-46.7-16.08-29.95-16.44-56.25-37.73-80.93-61.19-25.5-24.23-48.4-50.64-67.64-80.13-10.46-16.04-19.65-32.75-24.53-51.44-1.93-7.37-3.2-14.86-1.79-22.55,.94-5.17,2.91-9.71,6.73-13.47,9.15-9.02,18.17-18.17,27.28-27.23,5.9-5.86,13.53-5.18,18.13,1.69,12.29,18.34,24.53,36.72,36.74,55.11,3.91,5.89,3.41,11.15-1.55,16.25-.1,.1-.2,.21-.3,.31l16.17,16.17c.3-.31,.61-.61,.91-.92,11.22-11.53,14.03-28.16,5.86-40.91-13.24-20.69-26.76-41.21-40.88-61.3-11.38-16.2-35.58-17.7-49.8-3.93-2.6,2.52-5.12,5.1-7.68,7.66-4.41,4.41-8.63,9.03-13.27,13.18C10.71,101.34,2.15,112.35,0,127.29v17.22c2.41,11.87,5.55,23.49,10.47,34.62,9.75,22.05,22.7,42.13,37.36,61.14,34.01,44.07,73.62,82.24,120.24,112.87,16.73,10.99,34.33,20.32,53.62,26.14,5.86,1.77,11.91,2.62,17.84,4.02h17.22c.59-.2,1.16-.49,1.76-.59,10.16-1.75,18.76-6.32,25.98-13.74,5.85-6.02,11.81-11.93,17.76-17.85l-17.53-14.77Z"/></svg>