<?xml version="1.0" encoding="UTF-8"?><svg id="a" xmlns="http://www.w3.org/2000/svg" viewBox="0 0 384 255.69"><defs><style>.b{fill:blue;}</style></defs><path class="b" d="M0,239.39c0-74.36,0-148.72,0-223.08C5.35,3.2,10.09,.03,24.32,.03c70.07,0,140.13,0,210.2,0,42.46,0,84.93,.02,127.39-.03,5.97,0,11.72,.98,15.74,5.54,2.71,3.07,4.27,7.14,6.35,10.77V239.39c-5.34,13.09-10.12,16.28-24.35,16.28-76.68,0-153.36,0-230.04,0-35.97,0-71.93-.02-107.9,.02-5.84,0-11.45-1.07-15.35-5.54C3.67,247.06,2.08,243.01,0,239.39ZM368.98,24.4c-1.55,1.1-2.66,1.84-3.73,2.64-50.28,37.64-100.56,75.28-150.85,112.91-14.35,10.74-30.35,10.77-44.59,.11C119.32,102.29,68.84,64.51,18.36,26.73c-.96-.71-1.96-1.37-3.14-2.19V229.67c1.5-1.8,2.55-3.03,3.56-4.29,25.79-31.8,51.57-63.6,77.36-95.4,.78-.97,1.56-1.97,2.5-2.77,2.68-2.3,6.58-2.32,9.32-.15,2.64,2.09,3.55,5.68,2.06,8.76-.59,1.22-1.49,2.3-2.35,3.36-24.44,30.16-48.9,60.3-73.35,90.46-2.87,3.54-5.72,7.1-8.89,11.05H358.44c-.98-1.32-1.66-2.31-2.42-3.24-22.8-28.11-45.61-56.22-68.42-84.33-4.01-4.94-8.05-9.87-12.02-14.84-3.27-4.09-3.04-8.45,.48-11.23,3.47-2.73,7.77-1.92,11.11,2.09,.32,.38,.61,.79,.93,1.18,26.11,32.18,52.22,64.36,78.34,96.54,.66,.81,1.4,1.55,2.53,2.8V24.4ZM27.45,14.9c1.34,1.1,1.97,1.65,2.64,2.16,49.85,37.34,99.7,74.68,149.57,111.99,7.7,5.76,17.12,5.65,25-.24,49.77-37.23,99.52-74.49,149.27-111.75,.7-.53,1.29-1.2,2.3-2.16H27.45Z"/></svg>