<?xml version="1.0" encoding="utf-8"?>
<!-- Generator: Adobe Illustrator 25.0.0, SVG Export Plug-In . SVG Version: 6.00 Build 0)  -->
<svg version="1.1" id="Capa_1" xmlns="http://www.w3.org/2000/svg" xmlns:xlink="http://www.w3.org/1999/xlink" x="0px" y="0px"
	 viewBox="0 0 297 297" style="enable-background:new 0 0 297 297;" xml:space="preserve">
<style type="text/css">
	.st0{fill:#71B100;}
</style>
<g>
	<polygon class="st0" points="138.2,114.8 74.5,49 25.5,49 111.5,141.5 	"/>
	<path class="st0" d="M121.8,151.8l17.5,17.5c5.1,5.1,13.4,5.1,18.5,0L271.5,49h-52.7L121.8,151.8z"/>
	<path class="st0" d="M247,0H50c-4.4,0-8.4,2.2-10.9,5.8L19.8,34.7h257.3L257.9,5.8C255.5,2.2,251.4,0,247,0z"/>
	<path class="st0" d="M148.5,193.8c-28.5,0-51.6,23.1-51.6,51.6S120,297,148.5,297s51.6-23.1,51.6-51.6S177,193.8,148.5,193.8z
		 M159.7,263.9c0,4.3-3.5,7.8-7.8,7.8s-7.8-3.5-7.8-7.8v-29.2h-3.4c-4.3,0-7.8-3.5-7.8-7.8s3.5-7.8,7.8-7.8h11.2
		c4.3,0,7.8,3.5,7.8,7.8V263.9z"/>
</g>
</svg>
