<?xml version="1.0" encoding="UTF-8"?><svg id="a" xmlns="http://www.w3.org/2000/svg" viewBox="0 0 508.99 512"><defs><style>.b{fill:#fff;}.c{fill:#00a651;}.d{fill:#085e54;}</style></defs><path class="b" d="M272.48,0c78.82,0,157.64,0,236.51,0v512H13.96c1.15-.52,2.26-1.21,3.46-1.54,38.09-10.34,76.21-20.59,114.28-31.03,3.62-.99,6.5-.65,9.85,1.01,51.63,25.61,105.99,33.32,162.35,22.05,112.13-22.42,193.8-114.65,203.24-228.16,3.46-41.59-2.23-81.93-19.3-119.96C450.92,72.09,388.13,21.59,299.53,3.97,290.6,2.2,281.5,1.3,272.48,0Z"/><path class="d" d="M272.48,0c9.02,1.3,18.12,2.2,27.04,3.97,88.61,17.62,151.4,68.11,188.32,150.4,17.07,38.03,22.75,78.37,19.3,119.96-9.44,113.5-91.11,205.74-203.24,228.16-56.37,11.27-110.73,3.57-162.35-22.05-3.35-1.66-6.23-2-9.85-1.01-38.07,10.43-76.18,20.69-114.28,31.03-1.2,.33-2.31,1.02-3.46,1.54H6.98c-7.14-4.63-8.21-7.44-5.85-15.89,10.48-37.43,20.92-74.88,31.55-112.27,1.12-3.95,.87-7.09-1.11-10.77C8.41,329.87-1.15,283.6,2.32,234.83c3.32-46.66,18.7-89.25,45.71-127.51,3.48-4.93,7.77-6.51,12.42-4.77,4.27,1.59,7.24,6.16,6.28,10.73-.53,2.49-1.95,4.92-3.42,7.06-19.96,29.07-33.11,60.88-38.53,95.81-8.21,52.92,.18,103.03,25.92,150.01,3.53,6.44,4.49,12.09,2.39,19.29-9.52,32.67-18.47,65.51-27.62,98.29-.26,.92-.37,1.89-.72,3.73,5.26-1.33,9.99-2.45,14.69-3.72,31.19-8.46,62.38-16.92,93.55-25.48,4.26-1.17,8.01-.75,11.93,1.34,38.41,20.56,79.56,30.51,122.87,27.12,91.17-7.13,157.47-52.53,198.25-134.47,16.27-32.7,23.21-67.95,21.92-104.42-2.42-68.61-29.58-125.88-81.13-171.11-34.21-30.02-74.26-48.23-119.3-54.37-59.16-8.07-113.82,4.62-163.55,37.97-1.38,.93-2.72,1.92-4.12,2.81-5.55,3.53-11.57,2.5-14.87-2.53-2.92-4.45-1.52-10.32,3.49-13.91,16.28-11.68,33.73-21.23,52.33-28.65C184.24,8.67,208.5,2.77,233.7,.88c1.3-.1,2.57-.58,3.85-.88h34.94Z"/><path class="d" d="M82.83,429.66c13.55-3.62,25.99-6.93,38.43-10.27,5.28-1.42,10.63-2.65,15.78-4.44,5.15-1.8,9.64-.97,14.21,1.71,19.43,11.4,39.77,20.51,61.95,25.22,51.45,10.92,99.48,2.48,144.25-25.04,1.27-.78,2.5-1.64,3.79-2.4,5.3-3.1,11.72-2.22,14.31,1.94,3.48,5.59,2.14,11.9-3.49,15.63-20.24,13.42-42.12,23.26-65.73,28.88-54.86,13.06-107.14,6.01-156.44-21.46-5.89-3.28-10.82-3.72-17.18-1.87-20.2,5.89-40.6,11.1-60.94,16.53-10.18,2.72-16.31-3.54-13.46-13.8,5.74-20.63,11.49-41.26,17.44-61.82,1.2-4.14,.83-7.45-1.47-11.18-15-24.29-25.35-50.41-29.68-78.73-9.25-60.57,3.84-115.8,40.99-164.64,29.79-39.17,68.7-65.64,116.58-77.15,70.45-16.94,134.44-2.61,190.34,43.98,37.68,31.4,61.58,71.74,71.15,119.88,11.38,57.22,1.13,110.72-30.45,159.93-3.94,6.14-10.69,7.6-16.28,3.73-4-2.76-4.6-9.45-1.04-14.9,15.7-24.03,25.96-50.26,29.63-78.66,6.4-49.6-3.81-95.65-32.58-136.87-29.16-41.79-68.84-68.63-118.66-79-104.34-21.73-205.89,44.67-227.88,149.62-10.24,48.91-1.83,95.08,23.22,138.28,11.22,19.34,10.84,13.46,4.66,35.55-3.75,13.4-7.43,26.81-11.46,41.36Z"/><path class="c" d="M121.19,195.78c.49-13.38,4.77-30.75,16.63-45.49,13.04-16.21,30.2-20.76,49.97-16.61,7.21,1.51,12.47,6.07,15.46,12.93,6.63,15.23,13.26,30.48,19.8,45.75,5.25,12.24,3.69,23.32-5.79,33.04-2.9,2.97-5.32,6.44-8.36,9.24-2.55,2.35-2.33,4.19-.6,6.82,12.08,18.29,27.02,33.8,45.29,45.85,8.28,5.46,17.23,9.91,25.88,14.82,3.93,2.23,6.68,1.01,9.14-2.59,3.19-4.66,6.78-9.05,10.2-13.56,9.9-13.05,21.24-15.84,35.83-8.71,13.12,6.41,26.14,13.01,39.31,19.32,10.12,4.85,14.28,12.88,14.82,23.9,1.86,38.16-27.45,58.56-58.07,61.01-29.37,2.35-55.48-7.59-80.96-20.14-53.24-26.22-91.92-67.14-118.71-119.68-6.46-12.67-10.13-26.34-9.83-45.92Zm202.57,165.46c2.43-.25,7.28-.4,11.98-1.32,16.74-3.27,33.32-13.27,32.27-38.7-.09-2.11-1.86-5.08-3.7-6.04-12.64-6.6-25.63-12.56-38.25-19.21-4.9-2.58-7.86-1.55-10.86,2.59-4.09,5.66-8.54,11.06-12.72,16.66-6.26,8.4-14.56,10.46-24.33,8.03-14.84-3.7-27.09-12.34-39.32-20.94-20.12-14.14-36.78-31.62-49.66-52.62-5.81-9.47-4.92-18.17,2.4-26.54,3.4-3.88,6.55-8.02,10.26-11.58,3.71-3.57,4.04-7.13,2.04-11.64-6.32-14.27-12.37-28.66-18.72-42.91-.69-1.55-2.58-3.39-4.12-3.6-9.22-1.29-17.77-.13-24.7,7.23-10.05,10.67-13.54,23.83-14.55,37.81-.98,13.52,3.26,26.08,9.5,37.74,26.58,49.62,64.33,87.65,116.13,110.79,17.2,7.69,34.75,14.09,56.34,14.26Z"/><path class="d" d="M408.36,397.5c.04,5.48-4.17,9.91-9.56,10.06-5.66,.16-10.88-4.61-10.9-9.95-.01-5.76,5.15-10.92,10.83-10.82,5.04,.08,9.59,5.15,9.63,10.72Z"/><path class="d" d="M83.14,91.14c-5.83,.09-10.25-4.15-10.23-9.83,.02-5.27,4.48-9.92,9.71-10.11,5.36-.19,10.15,4.56,10.18,10.08,.03,5.53-4.12,9.77-9.66,9.85Z"/></svg>